<?xml version="1.0" standalone="no"?>
<!DOCTYPE svg PUBLIC "-//W3C//DTD SVG 20010904//EN"
 "http://www.w3.org/TR/2001/REC-SVG-20010904/DTD/svg10.dtd">
<svg version="1.0" xmlns="http://www.w3.org/2000/svg"
 width="72.000000pt" height="72.000000pt" viewBox="0 0 72.000000 72.000000"
 preserveAspectRatio="xMidYMid meet">
<metadata>
Created by potrace 1.14, written by Peter Selinger 2001-2017
</metadata>
<g transform="translate(0.000000,72.000000) scale(0.100000,-0.100000)"
fill="#000000" stroke="none">
<path d="M0 360 l0 -360 360 0 360 0 0 360 0 360 -360 0 -360 0 0 -360z m678
318 c17 -17 17 -269 0 -286 -8 -8 -54 -12 -139 -12 -103 0 -131 3 -143 16 -13
12 -16 40 -16 143 0 85 4 131 12 139 17 17 269 17 286 0z m-533 -360 c-11 -6
-25 -17 -31 -25 -10 -12 -16 -10 -39 12 l-28 25 59 0 c48 -1 55 -3 39 -12z
m128 -13 c-22 -19 -30 -21 -38 -11 -5 7 -19 18 -30 24 -17 10 -11 11 38 12
l58 0 -28 -25z m415 -119 c2 -93 -1 -143 -9 -152 -15 -19 -269 -20 -287 -2
-17 17 -17 269 0 286 9 9 52 12 153 10 l140 -3 3 -139z m-643 39 l-25 -24 0
49 0 49 25 -24 24 -25 -24 -25z m284 13 c0 -44 -3 -57 -9 -43 -4 12 -15 27
-24 34 -14 12 -14 16 7 42 12 15 23 28 25 28 1 1 2 -27 1 -61z m-132 -8 l-21
-25 -21 20 c-21 20 -21 20 -2 42 19 21 21 21 42 5 l22 -17 -20 -25z m-71 -75
l-21 -21 -23 20 -22 20 21 22 20 21 23 -20 22 -20 -20 -22z m146 38 c18 -16
18 -17 -3 -39 l-22 -23 -17 22 c-17 20 -17 24 -3 40 20 21 22 21 45 0z m-221
-68 c17 -19 17 -21 -7 -48 l-24 -28 1 63 c0 35 3 56 6 48 3 -8 14 -24 24 -35z
m279 -22 l0 -58 -23 29 c-23 28 -23 30 -5 48 10 10 18 23 18 28 0 6 2 10 5 10
3 0 5 -26 5 -57z m-133 -21 l-21 -22 -22 21 -23 22 22 17 c20 16 23 17 43 1
l22 -16 -21 -23z m-37 -55 c8 -3 -13 -6 -48 -6 l-63 -1 28 24 c27 24 29 24 48
7 11 -10 27 -21 35 -24z m116 18 l27 -25 -59 0 c-58 1 -59 1 -31 16 15 8 27
19 27 24 0 15 7 12 36 -15z"/>
<path d="M475 670 c-10 -17 41 -68 55 -54 7 7 1 19 -19 38 -20 19 -31 24 -36
16z"/>
<path d="M622 671 c-10 -6 -7 -16 14 -40 26 -31 26 -32 8 -52 -10 -12 -19 -28
-19 -37 0 -8 -6 -17 -14 -20 -10 -3 -12 1 -9 16 7 24 -34 68 -52 57 -8 -5 -3
-16 16 -36 l28 -29 -24 -25 c-31 -33 -17 -45 15 -15 l26 24 26 -27 27 -26 -24
-26 c-29 -31 -18 -47 12 -18 28 29 31 67 7 89 -23 21 -24 32 -3 56 25 27 25
73 0 97 -13 12 -26 17 -34 12z"/>
<path d="M425 650 c-27 -30 -28 -71 -3 -97 l21 -23 -21 -23 c-12 -13 -19 -27
-15 -30 10 -11 52 33 47 48 -3 7 0 16 6 20 8 5 3 17 -16 36 l-28 29 23 24 c12
13 18 27 13 30 -5 3 -17 -3 -27 -14z"/>
<path d="M565 650 c-10 -11 -15 -23 -12 -27 8 -7 47 25 47 39 0 14 -16 9 -35
-12z"/>
<path d="M495 580 c-26 -29 -13 -45 13 -17 13 14 19 28 14 31 -5 3 -17 -3 -27
-14z"/>
<path d="M470 517 c0 -22 37 -50 56 -43 15 6 14 9 -6 31 -26 27 -50 33 -50 12z"/>
<path d="M400 447 c0 -8 10 -23 23 -35 17 -16 26 -19 34 -11 9 9 4 18 -17 35
-32 27 -40 29 -40 11z"/>
<path d="M534 453 c-25 -5 -60 -40 -50 -50 3 -4 16 3 28 15 l22 22 28 -27 c22
-21 31 -24 40 -15 9 9 6 18 -12 37 -13 14 -26 24 -29 24 -3 -1 -16 -4 -27 -6z"/>
<path d="M450 295 c0 -16 27 -32 37 -21 7 7 -16 36 -28 36 -5 0 -9 -7 -9 -15z"/>
<path d="M550 295 c0 -16 27 -32 37 -21 7 7 -16 36 -28 36 -5 0 -9 -7 -9 -15z"/>
<path d="M640 302 c0 -10 22 -32 32 -32 15 0 8 28 -8 34 -21 8 -24 8 -24 -2z"/>
<path d="M462 228 c-7 -7 -12 -19 -12 -27 0 -11 4 -10 20 4 21 19 26 35 12 35
-4 0 -13 -5 -20 -12z"/>
<path d="M563 233 c-7 -2 -13 -14 -13 -25 0 -20 1 -21 20 -3 30 27 26 42 -7
28z"/>
<path d="M658 229 c-18 -10 -25 -39 -9 -39 12 0 33 28 29 39 -2 6 -9 6 -20 0z"/>
<path d="M450 145 c0 -16 27 -32 37 -21 7 7 -16 36 -28 36 -5 0 -9 -7 -9 -15z"/>
<path d="M550 145 c0 -16 27 -32 37 -21 7 7 -16 36 -28 36 -5 0 -9 -7 -9 -15z"/>
<path d="M640 152 c0 -10 22 -32 32 -32 15 0 8 28 -8 34 -21 8 -24 8 -24 -2z"/>
<path d="M462 78 c-7 -7 -12 -19 -12 -27 0 -11 4 -10 20 4 21 19 26 35 12 35
-4 0 -13 -5 -20 -12z"/>
<path d="M563 83 c-7 -2 -13 -14 -13 -25 0 -20 1 -21 20 -3 30 27 26 42 -7 28z"/>
<path d="M658 79 c-18 -10 -25 -39 -9 -39 12 0 33 28 29 39 -2 6 -9 6 -20 0z"/>
</g>
</svg>
